inDegrees=no
num_controls=7
num_derivatives=13
num_iterations=184
num_multipliers=7
num_parameters=0
num_slacks=7
num_states=26
objective=0.477243
objective_accelerations=0.004127
objective_balance=0.005116
objective_effort=0.009501
objective_height=0.450145
objective_ligament=0.008354
solver_duration=2715.182896
status=Solve_Succeeded
success=true
DataType=double
version=3
OpenSimVersion=4.5
endheader
time	/jointset/ground_pelvis/pelvis_tilt/value	/jointset/ground_pelvis/pelvis_tx/value	/jointset/ground_pelvis/pelvis_ty/value	/jointset/hip_l/hip_flexion_l/value	/jointset/hip_l/hip_adduction_l/value	/jointset/hip_l/hip_rotation_l/value	/jointset/back/lumbar_extension/value	/jointset/patellofemoral_l/patellar_flexion_l/value	/jointset/knee_l/knee_flexion_l/value	/jointset/knee_l/knee_adduction_l/value	/jointset/knee_l/knee_rotation_l/value	/jointset/ankle_l/ankle_angle_l/value	/jointset/subtalar_l/subtalar_angle_l/value	/jointset/ground_pelvis/pelvis_tilt/speed	/jointset/ground_pelvis/pelvis_tx/speed	/jointset/ground_pelvis/pelvis_ty/speed	/jointset/hip_l/hip_flexion_l/speed	/jointset/hip_l/hip_adduction_l/speed	/jointset/hip_l/hip_rotation_l/speed	/jointset/back/lumbar_extension/speed	/jointset/patellofemoral_l/patellar_flexion_l/speed	/jointset/knee_l/knee_flexion_l/speed	/jointset/knee_l/knee_adduction_l/speed	/jointset/knee_l/knee_rotation_l/speed	/jointset/ankle_l/ankle_angle_l/speed	/jointset/subtalar_l/subtalar_angle_l/speed	/forceset/tau_hip_flexion_l	/forceset/tau_hip_adduction_l	/forceset/tau_hip_rotation_l	/forceset/tau_knee_flexion_l	/forceset/tau_ankle_angle_l	/forceset/tau_subtalar_angle_l	/forceset/tau_lumbar_extension	lambda_cid13_p0	lambda_cid13_p1	lambda_cid13_p2	lambda_cid13_p3	lambda_cid13_p4	lambda_cid13_p5	lambda_cid14_p0	/jointset/ground_pelvis/pelvis_tilt/accel	/jointset/ground_pelvis/pelvis_tx/accel	/jointset/ground_pelvis/pelvis_ty/accel	/jointset/hip_l/hip_flexion_l/accel	/jointset/hip_l/hip_adduction_l/accel	/jointset/hip_l/hip_rotation_l/accel	/jointset/back/lumbar_extension/accel	/jointset/patellofemoral_l/patellar_flexion_l/accel	/jointset/knee_l/knee_flexion_l/accel	/jointset/knee_l/knee_adduction_l/accel	/jointset/knee_l/knee_rotation_l/accel	/jointset/ankle_l/ankle_angle_l/accel	/jointset/subtalar_l/subtalar_angle_l/accel	gamma_cid13_p0	gamma_cid13_p1	gamma_cid13_p2	gamma_cid13_p3	gamma_cid13_p4	gamma_cid13_p5	gamma_cid14_p0
0	-0.1601683879542839	0.05857483195486402	0.8979987472221321	0.3774924667018715	-0.259136561623442	-0.2729759040941098	-0.01265067647494873	0.0322364824372131	0.03223648243721463	-0.1745326168455759	0.1745326510950149	-0.04231377076293093	-0.009260929679203762	0	0	0	0	0	0	0	0	0	0	0	0	0	0.08761728987830991	-0.06190481458085888	-0.04801476127249331	-0.2819698076472584	0.3282067558451199	-0.04164790073072826	-0.0304642055546289	62.10280731533159	1.028762654452511	6.498518758250314	-33.75234523618767	-626.6816988466517	-71.59575909849873	-39.0749949702417	-0.633403906561776	0.04458696272627208	-0.09508226895330381	1.091788245018914	-0.09993614303883393	0.3215532476580457	-2.138630662977728	0.8066248121002016	0.8066248121002063	0.03308739538967823	-0.0299606677041889	0.3838031672160232	-0.01355846721599037	-3.882559124690173e-10	3.168197165182111e-09	-1.519828727686572e-10	2.887882926317294e-10	3.104239864841892e-10	1.052885314653832e-09	1.933583710067603e-10
0.01	-0.1601995469259662	0.05857726117062369	0.8979941032558566	0.377545600310747	-0.2591416061068256	-0.2729600955141016	-0.01275678664736127	0.03227573283927333	0.03227573283928609	-0.1745313515842307	0.1745310654896055	-0.04229482075445858	-0.009261704884382051	-0.006209933701603331	0.0005017061762483422	-0.0009233789746207183	0.0105546618500648	-0.001012072463041826	0.003123876801328887	-0.02112130916025093	0.007807502334292426	0.007807502334292382	0.0002317001278871788	-0.0002939710807228192	0.003789154183870357	-0.0001577927967943145	0.08629558971885386	-0.07643364930094874	-0.04756969061514403	-0.2802724354672135	0.3225312356397453	-0.02584346840393767	-0.02938605430922992	60.90857144814564	-5.241261468559413	7.058667855676052	-33.45188249875378	-626.8520516467578	-84.35615054752733	-39.07606549410607	-0.611509091495634	0.05534195679846251	-0.09015350763238748	1.02649608323551	-0.1023196021504531	0.3021291718918529	-2.083772244309363	0.7614261935410768	0.7614261935410699	0.01500898263220732	-0.02564261680558602	0.3763443986002983	-0.01730292209208101	-5.57364815738947e-10	1.663782959722687e-09	5.823077323486941e-10	3.787674642395782e-10	-8.986111477037359e-10	2.948851730040295e-10	-3.821539264257866e-11
0.02	-0.1602921494325699	0.05858518335049093	0.8979803879406512	0.3777021187237764	-0.2591568666756824	-0.2729141833109781	-0.01307108815172732	0.03239178091457925	0.03239178091457807	-0.1745284097891271	0.1745272347156979	-0.04223800463322193	-0.009264140664764576	-0.01228870698465274	0.001098592821515433	-0.001814269785949483	0.02067696082953707	-0.002043217094636755	0.006020724623511701	-0.04163826639093289	0.01535953464647442	0.01535953464647401	0.0003353067015181543	-0.0004490337034057332	0.007573222552848206	-0.0003321150408329376	0.08497388955943423	-0.09096248402102877	-0.04712461995789634	-0.2785750632871463	0.3168557154343732	-0.01003903607713564	-0.02830790306380043	59.72167768492327	-11.51262618965227	7.619093597196961	-33.17920767846733	-626.9216194054251	-97.10676416766619	-39.0792632693038	-0.607171822851127	0.06362305653013577	-0.0885846362949408	1.005315670900313	-0.1037505767498234	0.2761474518287442	-2.017760277063962	0.7555308076781078	0.7555308076780497	0.007468684537693639	-0.002178976096090406	0.3827860042375438	-0.01686435666520671	-7.264737190088766e-10	1.593687542632625e-10	1.316598337466045e-09	4.687466358474271e-10	-2.107646281891661e-09	-4.631149686457727e-10	-2.697891562919176e-10
0.03	-0.1604447714366318	0.05859928199536413	0.8979578975685726	0.3779580874600842	-0.2591824885552352	-0.2728401973363746	-0.01358752585883254	0.03258231599842428	0.03258231599842128	-0.1745248945531161	0.1745223825938231	-0.04214357461189872	-0.009268409119894334	-0.01820127495495265	0.001710361844413298	-0.002681043044254352	0.03048115213212697	-0.003079850805324264	0.008766138929736853	-0.06154808319704886	0.02272734820062867	0.02272734820062926	0.0003640021413787994	-0.0005187096135545412	0.01129143901066848	-0.0005251959106920265	0.08233001314053237	-0.08519444078589969	-0.04656408580223374	-0.2744431130274715	0.3119855747888084	-0.01354747524975469	-0.02635768570581275	58.00782344433107	-9.83319691289271	7.516251100127637	-31.88791118251405	-626.9247886363828	-93.23850362859812	-39.08454475685767	-0.578136491672381	0.05833777318908136	-0.08530985921468699	0.9626256328137264	-0.1034236738917824	0.2721885008848582	-1.962413607554157	0.7243865959379046	0.7243865959380685	9.385518980403566e-06	-0.008959952228927752	0.3631379983562356	-0.02107310506792703	-9.663486968009521e-10	-4.095719951980374e-10	2.003952756742874e-09	6.209740285458539e-10	-2.785336301452885e-09	-1.059216723909782e-09	-4.253449270472996e-10
0.04	-0.1606554865619045	0.05861917512007039	0.8979268222261875	0.3783110290640039	-0.2592184375530272	-0.2727390672025377	-0.01430002597902955	0.03284592521113896	0.03284592521113962	-0.1745212044803057	0.1745169141021007	-0.04201260271963674	-0.009274717014307021	-0.02390733122737827	0.002257488788127326	-0.003531263847224549	0.0400715343497336	-0.004108640742556237	0.01144955647057164	-0.08085074900992173	0.02997436042093378	0.02997436042093483	0.0003702740535797763	-0.0005723076738827678	0.01488159674056586	-0.0007400028974216847	0.079686136721701	-0.07942639755077623	-0.04600355164652425	-0.2703111627677847	0.3071154341432434	-0.0170559144223798	-0.02440746834776217	56.30096526153087	-8.154668539587332	7.413182110963053	-30.62379399798087	-626.8335118975131	-89.36060545489261	-39.09189343672227	-0.5658694832763588	0.05069464069344438	-0.08527414522801785	0.9625538539036109	-0.1021818220588725	0.2637480987505457	-1.89633007841537	0.7313705409082789	0.7313705409081155	0.002983979005434907	0.001036593868163726	0.3571742586530035	-0.0212095800394627	-1.207682768913072e-09	-9.592246321645309e-10	2.690339419610619e-09	7.74484889720375e-10	-3.452070751640363e-09	-1.651980368114291e-09	-5.793333165058989e-10
